<svg width="512" height="512" viewBox="0 0 512 512" fill="none" xmlns="http://www.w3.org/2000/svg">
<path d="M297.329 243.542H317.259C330.529 247.509 321.215 256.763 307.945 256.763L305.291 248.831L297.329 243.542Z" fill="url(#paint0_linear_793_2476)"/>
<path d="M330.529 236.932C373.435 236.492 467.209 230.322 495.076 206.526C493.749 211.814 487.114 227.678 471.19 232.966C477.825 234.288 498.261 224.505 511 211.814C509.673 226.356 468.536 252.797 468.536 252.797C468.536 252.797 478.621 252.532 492.422 246.187C485.787 258.085 475.171 263.902 459.247 266.017C460.574 266.898 469.863 270.776 475.171 268.661C471.633 273.509 459.247 281.881 439.342 283.204C440.669 285.407 444.65 287.17 449.958 287.17C278.751 399.543 195.176 285.848 331.856 267.339C340.349 265.224 342.914 274.39 341.145 277.915C351.488 271.643 354.546 266.017 354.546 259.407C354.546 248.831 346.14 246.187 338.491 246.187L330.529 236.932Z" fill="url(#paint1_linear_793_2476)"/>
<path d="M70.4387 84.8983C74.4197 118.831 119.537 197.271 268.161 229L234.986 239.576L248.256 256.763H237.64L254.891 271.305L246.929 276.593C290.719 325.509 172.617 395.576 96.9785 328.153C118.21 326.037 141.212 314.051 150.058 307C81.0546 284.526 50.0915 251.475 25.321 225.034C30.629 226.356 33.2621 225.475 35.9057 225.034C21.0434 218.688 10.7241 201.237 8.0701 193.305C10.7241 194.627 15.9988 196.39 19.9788 195.949C-2.57118 180.085 0.0977804 168.187 0.0977804 164.22C5.40575 170.831 16.4384 171.712 22.6301 172.153C-6.53718 145.712 1.43514 117.949 8.0701 111.339C10.1933 122.973 21.34 131.17 30.5953 135.136C16.0321 99.4407 34.6089 79.1695 42.5719 73C39.3871 92.0373 51.8608 116.627 59.793 124.559C50.5338 104.729 65.1307 89.3051 70.4387 84.8983Z" fill="url(#paint2_linear_793_2476)"/>
<defs>
<linearGradient id="paint0_linear_793_2476" x1="256.192" y1="185.5" x2="256.192" y2="356" gradientUnits="userSpaceOnUse">
<stop stop-color="#FF00B2"/>
<stop offset="1" stop-color="#E27900"/>
</linearGradient>
<linearGradient id="paint1_linear_793_2476" x1="256.192" y1="185.5" x2="256.192" y2="356" gradientUnits="userSpaceOnUse">
<stop stop-color="#FF00B2"/>
<stop offset="1" stop-color="#E27900"/>
</linearGradient>
<linearGradient id="paint2_linear_793_2476" x1="256.192" y1="185.5" x2="256.192" y2="356" gradientUnits="userSpaceOnUse">
<stop stop-color="#FF00B2"/>
<stop offset="1" stop-color="#E27900"/>
</linearGradient>
</defs>
</svg>
