<svg width="128" height="128" viewBox="0 0 128 128" fill="none" xmlns="http://www.w3.org/2000/svg">
<path d="M74.3323 60.8856H79.3148C82.6323 61.8771 80.3037 64.1907 76.9862 64.1907L76.3227 62.2077L74.3323 60.8856Z" fill="url(#paint0_linear_793_2489)"/>
<path d="M82.6323 59.2331C93.3588 59.1229 116.802 57.5805 123.769 51.6314C123.437 52.9534 121.779 56.9195 117.798 58.2416C119.456 58.5721 124.565 56.1263 127.75 52.9534C127.418 56.589 117.134 63.1992 117.134 63.1992C117.134 63.1992 119.655 63.1331 123.106 61.5466C121.447 64.5212 118.793 65.9755 114.812 66.5043C115.144 66.7246 117.466 67.6941 118.793 67.1653C117.908 68.3772 114.812 70.4704 109.836 70.8009C110.167 71.3517 111.163 71.7924 112.49 71.7924C69.6878 99.8856 48.794 71.4619 82.964 66.8348C85.0872 66.306 85.7286 68.5975 85.2863 69.4788C87.872 67.9108 88.6365 66.5043 88.6365 64.8517C88.6365 62.2077 86.535 61.5466 84.6228 61.5466L82.6323 59.2331Z" fill="url(#paint1_linear_793_2489)"/>
<path d="M17.6097 21.2246C18.6049 29.7076 29.8844 49.3178 67.0401 57.25L58.7464 59.8941L62.0639 64.1907H59.4099L63.7227 67.8263L61.7322 69.1483C72.6799 81.3772 43.1543 98.8941 24.2447 82.0382C29.5526 81.5094 35.3029 78.5127 37.5146 76.75C20.2637 71.1314 12.5229 62.8687 6.33028 56.2585C7.65727 56.589 8.31556 56.3687 8.97645 56.2585C5.26087 54.6721 2.68105 50.3093 2.01756 48.3263C2.68105 48.6568 3.99974 49.0975 4.99474 48.9873C-0.642762 45.0212 0.0244772 42.0466 0.0244772 41.0551C1.35147 42.7076 4.10962 42.928 5.65755 43.0382C-1.63426 36.428 0.358817 29.4873 2.01756 27.8348C2.54835 30.7432 5.33504 32.7924 7.64885 33.7839C4.00804 24.8602 8.65225 19.7924 10.643 18.25C9.84681 23.0093 12.9652 29.1568 14.9483 31.1398C12.6335 26.1822 16.2827 22.3263 17.6097 21.2246Z" fill="url(#paint2_linear_793_2489)"/>
<defs>
<linearGradient id="paint0_linear_793_2489" x1="64.0481" y1="46.375" x2="64.0481" y2="89" gradientUnits="userSpaceOnUse">
<stop stop-color="#FF00B2"/>
<stop offset="1" stop-color="#E27900"/>
</linearGradient>
<linearGradient id="paint1_linear_793_2489" x1="64.0481" y1="46.375" x2="64.0481" y2="89" gradientUnits="userSpaceOnUse">
<stop stop-color="#FF00B2"/>
<stop offset="1" stop-color="#E27900"/>
</linearGradient>
<linearGradient id="paint2_linear_793_2489" x1="64.0481" y1="46.375" x2="64.0481" y2="89" gradientUnits="userSpaceOnUse">
<stop stop-color="#FF00B2"/>
<stop offset="1" stop-color="#E27900"/>
</linearGradient>
</defs>
</svg>
