<svg width="256" height="256" viewBox="0 0 256 256" fill="none" xmlns="http://www.w3.org/2000/svg">
<path d="M148.665 121.771H158.63C165.265 123.754 160.607 128.381 153.972 128.381L152.645 124.415L148.665 121.771Z" fill="url(#paint0_linear_793_2486)"/>
<path d="M165.265 118.466C186.718 118.246 233.605 115.161 247.538 103.263C246.875 105.907 243.557 113.839 235.595 116.483C238.913 117.144 249.13 112.253 255.5 105.907C254.837 113.178 234.268 126.398 234.268 126.398C234.268 126.398 239.311 126.266 246.211 123.093C242.894 129.042 237.586 131.951 229.624 133.009C230.287 133.449 234.932 135.388 237.586 134.331C235.816 136.754 229.624 140.941 219.671 141.602C220.335 142.703 222.325 143.585 224.979 143.585C139.376 199.771 97.588 142.924 165.928 133.67C170.174 132.612 171.457 137.195 170.573 138.958C175.744 135.822 177.273 133.009 177.273 129.703C177.273 124.415 173.07 123.093 169.246 123.093L165.265 118.466Z" fill="url(#paint1_linear_793_2486)"/>
<path d="M35.2194 42.4492C37.2099 59.4153 59.7688 98.6356 134.08 114.5L117.493 119.788L124.128 128.381H118.82L127.445 135.653L123.464 138.297C145.36 162.754 86.3086 197.788 48.4893 164.076C59.1053 163.019 70.6059 157.025 75.0292 153.5C40.5274 142.263 25.0458 125.737 12.6606 112.517C15.3145 113.178 16.6311 112.737 17.9529 112.517C10.5217 109.344 5.3621 100.619 4.03511 96.6526C5.3621 97.3136 7.99948 98.195 9.98948 97.9746C-1.28552 90.0424 0.0489544 84.0933 0.0489544 82.1102C2.70294 85.4153 8.21925 85.856 11.3151 86.0763C-3.26852 72.856 0.717633 58.9746 4.03511 55.6695C5.09671 61.4865 10.6701 65.5848 15.2977 67.5678C8.01609 49.7203 17.3045 39.5847 21.286 36.5C19.6936 46.0187 25.9305 58.3136 29.8966 62.2797C25.267 52.3644 32.5654 44.6525 35.2194 42.4492Z" fill="url(#paint2_linear_793_2486)"/>
<defs>
<linearGradient id="paint0_linear_793_2486" x1="128.096" y1="92.75" x2="128.096" y2="178" gradientUnits="userSpaceOnUse">
<stop stop-color="#FF00B2"/>
<stop offset="1" stop-color="#E27900"/>
</linearGradient>
<linearGradient id="paint1_linear_793_2486" x1="128.096" y1="92.75" x2="128.096" y2="178" gradientUnits="userSpaceOnUse">
<stop stop-color="#FF00B2"/>
<stop offset="1" stop-color="#E27900"/>
</linearGradient>
<linearGradient id="paint2_linear_793_2486" x1="128.096" y1="92.75" x2="128.096" y2="178" gradientUnits="userSpaceOnUse">
<stop stop-color="#FF00B2"/>
<stop offset="1" stop-color="#E27900"/>
</linearGradient>
</defs>
</svg>
